<svg width="27" height="18" viewBox="0 0 27 18" fill="none" xmlns="http://www.w3.org/2000/svg">
<path d="M26.3558 3.06382C26.3558 3.46923 26.2231 4.60068 25.8478 6.07444C25.4733 7.5452 24.8596 9.3469 23.9035 11.0944C21.992 14.5884 18.7233 17.85 13.263 17.85C7.80263 17.85 4.53391 14.5884 2.62241 11.0944C1.66636 9.3469 1.0527 7.5452 0.678168 6.07444C0.302874 4.60068 0.170142 3.46923 0.170142 3.06382C0.170142 2.89919 0.241597 2.72658 0.401546 2.54573C0.562328 2.36395 0.80632 2.18143 1.13281 2.00285C1.78566 1.64575 2.74026 1.31939 3.93269 1.04351C6.31514 0.492315 9.61397 0.15 13.263 0.15C16.912 0.15 20.2108 0.492315 22.5933 1.04351C23.7857 1.31939 24.7403 1.64575 25.3931 2.00285C25.7196 2.18143 25.9636 2.36395 26.1244 2.54573C26.2844 2.72658 26.3558 2.89919 26.3558 3.06382Z" fill="#A5A36C" stroke="black" stroke-width="0.3"/>
<path d="M24.7777 3.15456C24.6182 3.48699 24.2835 3.81743 23.7569 4.12676C23.2183 4.44314 22.483 4.73498 21.5405 4.98335C19.6555 5.48009 16.9479 5.80135 13.3428 5.80135C9.7377 5.80135 6.92572 5.4801 4.95225 4.98322C3.96539 4.73475 3.19005 4.44281 2.63052 4.12635C2.08341 3.81692 1.7492 3.4878 1.6194 3.1591C2.13005 2.47644 3.25184 1.87719 5.14395 1.44833C7.05337 1.01555 9.73707 0.758496 13.3428 0.758496C16.9482 0.758496 19.624 1.04765 21.4933 1.4964C22.428 1.72078 23.1597 1.98473 23.7047 2.27149C24.2371 2.55162 24.5879 2.85169 24.7777 3.15456Z" fill="#FFF8BC" stroke="black" stroke-width="0.1"/>
</svg>
