<svg width="28" height="18" viewBox="0 0 28 18" fill="none" xmlns="http://www.w3.org/2000/svg">
<path d="M27.0157 3.06382C27.0157 3.46923 26.883 4.60068 26.5077 6.07444C26.1332 7.5452 25.5195 9.3469 24.5635 11.0944C22.652 14.5884 19.3832 17.85 13.9229 17.85C8.46254 17.85 5.19383 14.5884 3.28233 11.0944C2.32627 9.3469 1.71261 7.5452 1.33808 6.07444C0.962786 4.60068 0.830054 3.46923 0.830054 3.06382C0.830054 2.89919 0.901509 2.72658 1.06146 2.54573C1.22224 2.36395 1.46623 2.18143 1.79272 2.00285C2.44557 1.64575 3.40017 1.31939 4.5926 1.04351C6.97506 0.492315 10.2739 0.15 13.9229 0.15C17.5719 0.15 20.8707 0.492315 23.2532 1.04351C24.4456 1.31939 25.4002 1.64575 26.0531 2.00285C26.3795 2.18143 26.6235 2.36395 26.7843 2.54573C26.9443 2.72658 27.0157 2.89919 27.0157 3.06382Z" fill="#E9E9E9" stroke="black" stroke-width="0.3"/>
<path d="M25.4376 3.15456C25.2781 3.48699 24.9435 3.81743 24.4168 4.12676C23.8782 4.44314 23.1429 4.73498 22.2004 4.98335C20.3154 5.48009 17.6078 5.80135 14.0027 5.80135C10.3976 5.80135 7.58563 5.4801 5.61216 4.98322C4.6253 4.73475 3.84996 4.44281 3.29043 4.12635C2.74332 3.81692 2.40912 3.4878 2.27931 3.1591C2.78996 2.47644 3.91176 1.87719 5.80386 1.44833C7.71328 1.01555 10.397 0.758496 14.0027 0.758496C17.6081 0.758496 20.2839 1.04765 22.1532 1.4964C23.088 1.72078 23.8196 1.98473 24.3646 2.27149C24.8971 2.55162 25.2478 2.85169 25.4376 3.15456Z" fill="white" stroke="black" stroke-width="0.1"/>
</svg>
